<svg xmlns="http://www.w3.org/2000/svg" viewBox="0 0 512 512" role="img" aria-label="iKuai Dashboard">
  <defs>
    <linearGradient id="bg" x1="86" x2="426" y1="64" y2="448" gradientUnits="userSpaceOnUse">
      <stop stop-color="#0e1c22"/>
      <stop offset="1" stop-color="#05090c"/>
    </linearGradient>
    <linearGradient id="edge" x1="126" x2="388" y1="110" y2="404" gradientUnits="userSpaceOnUse">
      <stop stop-color="#55d8ff"/>
      <stop offset=".52" stop-color="#25d7a0"/>
      <stop offset="1" stop-color="#9cff6a"/>
    </linearGradient>
    <linearGradient id="bolt" x1="214" x2="320" y1="146" y2="360" gradientUnits="userSpaceOnUse">
      <stop stop-color="#eaffff"/>
      <stop offset=".45" stop-color="#55d8ff"/>
      <stop offset="1" stop-color="#21e28f"/>
    </linearGradient>
    <filter id="glow" x="-30%" y="-30%" width="160%" height="160%" color-interpolation-filters="sRGB">
      <feGaussianBlur stdDeviation="14" result="blur"/>
      <feMerge>
        <feMergeNode in="blur"/>
        <feMergeNode in="SourceGraphic"/>
      </feMerge>
    </filter>
  </defs>
  <rect width="512" height="512" rx="112" fill="url(#bg)"/>
  <path fill="#10242b" d="M86 256c0-93.9 76.1-170 170-170s170 76.1 170 170-76.1 170-170 170S86 349.9 86 256Z"/>
  <path fill="none" stroke="url(#edge)" stroke-linecap="round" stroke-width="28" d="M151 276c28 58 83 94 144 82 56-11 94-59 99-116"/>
  <path fill="none" stroke="#55d8ff" stroke-linecap="round" stroke-opacity=".9" stroke-width="24" d="M122 216h82m104-82 40-40m42 164h68M166 384l-46 46"/>
  <g filter="url(#glow)">
    <path fill="url(#bolt)" d="M284 118 174 272h74l-24 122 116-166h-76l20-110Z"/>
    <circle cx="122" cy="216" r="22" fill="#55d8ff"/>
    <circle cx="348" cy="94" r="20" fill="#25d7a0"/>
    <circle cx="458" cy="258" r="22" fill="#55d8ff"/>
    <circle cx="120" cy="430" r="18" fill="#9cff6a"/>
  </g>
  <path fill="none" stroke="#ffffff" stroke-linecap="round" stroke-opacity=".22" stroke-width="18" d="M132 142c44-48 107-69 168-56"/>
</svg>
